<svg width="39" height="27" viewBox="0 0 39 27" fill="none" xmlns="http://www.w3.org/2000/svg">
<rect x="1.01322" y="0.772012" width="37.6724" height="25.6609" rx="3.00288" fill="white" stroke="#D9D9D9" stroke-width="0.545977"/>
<path fill-rule="evenodd" clip-rule="evenodd" d="M20.1203 19.2339C18.8192 20.3567 17.1314 21.0345 15.2872 21.0345C11.172 21.0345 7.83594 17.6597 7.83594 13.4967C7.83594 9.33375 11.172 5.95898 15.2872 5.95898C17.1315 5.95898 18.8193 6.63684 20.1205 7.7597C21.4216 6.63694 23.1093 5.95915 24.9536 5.95915C29.0688 5.95915 32.4048 9.33392 32.4048 13.4969C32.4048 17.6599 29.0688 21.0346 24.9536 21.0346C23.1093 21.0346 21.4214 20.3568 20.1203 19.2339Z" fill="#ED0006"/>
<path fill-rule="evenodd" clip-rule="evenodd" d="M20.1211 19.2338C21.7233 17.8512 22.7392 15.7939 22.7392 13.4966C22.7392 11.1993 21.7234 9.14209 20.1213 7.75953C21.4224 6.63677 23.1102 5.95898 24.9544 5.95898C29.0696 5.95898 32.4056 9.33375 32.4056 13.4967C32.4056 17.6597 29.0696 21.0345 24.9544 21.0345C23.1101 21.0345 21.4222 20.3566 20.1211 19.2338Z" fill="#F9A000"/>
<path fill-rule="evenodd" clip-rule="evenodd" d="M20.1199 19.234C21.7221 17.8514 22.7381 15.7941 22.7381 13.4968C22.7381 11.1996 21.7222 9.14233 20.1201 7.75977C18.5179 9.14233 17.502 11.1996 17.502 13.497C17.502 15.7942 18.5178 17.8514 20.1199 19.234Z" fill="#FF5E00"/>
</svg>
