<svg width="39" height="27" viewBox="0 0 39 27" fill="none" xmlns="http://www.w3.org/2000/svg">
<rect x="0.272989" y="0.272989" width="37.6724" height="25.6609" rx="3.00288" fill="white" stroke="#D9D9D9" stroke-width="0.545977"/>
<path fill-rule="evenodd" clip-rule="evenodd" d="M11.6026 17.7527L9.28727 17.7527L7.55108 11.129C7.46868 10.8243 7.2937 10.555 7.03632 10.428C6.394 10.109 5.6862 9.85508 4.91406 9.72702L4.91406 9.47201H8.64382C9.15858 9.47201 9.54465 9.85508 9.609 10.3L10.5098 15.0778L12.824 9.47201L15.0749 9.47201L11.6026 17.7527ZM16.362 17.7529L14.1754 17.7529L15.9759 9.47219H18.1625L16.362 17.7529ZM20.9912 11.7662C21.0555 11.3202 21.4416 11.0652 21.892 11.0652C22.5998 11.0012 23.3708 11.1293 24.0143 11.4472L24.4004 9.66432C23.7569 9.40931 23.0491 9.28125 22.4068 9.28125C20.2845 9.28125 18.7402 10.4282 18.7402 12.0201C18.7402 13.2312 19.8341 13.867 20.6062 14.2501C21.4416 14.6321 21.7633 14.8871 21.699 15.269C21.699 15.842 21.0555 16.097 20.4132 16.097C19.6411 16.097 18.8689 15.906 18.1623 15.587L17.7762 17.3709C18.5483 17.6889 19.3837 17.8169 20.1558 17.8169C22.5355 17.8799 24.0143 16.734 24.0143 15.014C24.0143 12.8481 20.9912 12.7211 20.9912 11.7662V11.7662ZM31.6669 17.753L29.9308 9.47227L28.0659 9.47227C27.6798 9.47227 27.2937 9.72728 27.165 10.1092L23.95 17.753L26.201 17.753L26.6503 16.543H29.416L29.6734 17.753L31.6669 17.753ZM28.3873 11.7019L29.0296 14.8228L27.229 14.8228L28.3873 11.7019Z" fill="#172B85"/>
</svg>
