<svg width="106" height="28" viewBox="0 0 106 28" fill="none" xmlns="http://www.w3.org/2000/svg">
<g clip-path="url(#clip0_382_27724)">
<path d="M37.9469 20.9422C37.0216 20.9422 36.1835 20.7947 35.4326 20.4997C34.6951 20.1912 34.0582 19.7353 33.5218 19.1319C32.9988 18.5285 32.5966 17.7843 32.315 16.8993C32.0334 16.0008 31.8926 14.9616 31.8926 13.7816C31.8926 12.6016 32.0334 11.5557 32.315 10.6438C32.5966 9.7186 32.9988 8.94757 33.5218 8.33074C34.0582 7.70051 34.6951 7.22448 35.4326 6.90266C36.1835 6.58083 37.0216 6.41992 37.9469 6.41992C39.2073 6.41992 40.2533 6.68811 41.0846 7.22448C41.916 7.76085 42.5798 8.57211 43.0759 9.65826L40.803 10.8651C40.6019 10.2349 40.2734 9.73201 39.8175 9.35655C39.3615 8.96768 38.738 8.77325 37.9469 8.77325C36.9546 8.77325 36.1634 9.10848 35.5734 9.77894C34.9968 10.4494 34.7085 11.3881 34.7085 12.5949V14.8074C34.7085 16.0277 34.9968 16.9663 35.5734 17.6234C36.1634 18.267 36.9546 18.5888 37.9469 18.5888C38.738 18.5888 39.3817 18.3743 39.8778 17.9452C40.3873 17.5161 40.7561 16.9864 40.9841 16.3562L43.1362 17.6234C42.6267 18.6693 41.9495 19.4873 41.1047 20.0773C40.26 20.6539 39.2073 20.9422 37.9469 20.9422Z" fill="black"/>
<path d="M49.0101 20.9422C48.2592 20.9422 47.5821 20.8148 46.9786 20.56C46.3886 20.3052 45.8791 19.9365 45.45 19.4537C45.0343 18.971 44.7125 18.3944 44.4845 17.7239C44.2566 17.0401 44.1426 16.2757 44.1426 15.4309C44.1426 14.5862 44.2566 13.8285 44.4845 13.1581C44.7125 12.4876 45.0343 11.9177 45.45 11.4484C45.8791 10.9657 46.3886 10.5969 46.9786 10.3421C47.5821 10.0873 48.2592 9.95996 49.0101 9.95996C49.7611 9.95996 50.4382 10.0873 51.0416 10.3421C51.6451 10.5969 52.1546 10.9657 52.5703 11.4484C52.9994 11.9177 53.3279 12.4876 53.5559 13.1581C53.7838 13.8285 53.8978 14.5862 53.8978 15.4309C53.8978 16.2757 53.7838 17.0401 53.5559 17.7239C53.3279 18.3944 52.9994 18.971 52.5703 19.4537C52.1546 19.9365 51.6451 20.3052 51.0416 20.56C50.4382 20.8148 49.7611 20.9422 49.0101 20.9422ZM49.0101 18.8704C49.694 18.8704 50.2304 18.6626 50.6193 18.2469C51.0081 17.8312 51.2026 17.2211 51.2026 16.4165V14.4655C51.2026 13.6743 51.0081 13.0709 50.6193 12.6552C50.2304 12.2395 49.694 12.0317 49.0101 12.0317C48.3397 12.0317 47.81 12.2395 47.4211 12.6552C47.0323 13.0709 46.8378 13.6743 46.8378 14.4655V16.4165C46.8378 17.2211 47.0323 17.8312 47.4211 18.2469C47.81 18.6626 48.3397 18.8704 49.0101 18.8704Z" fill="black"/>
<path d="M57.0544 8.67315C56.5181 8.67315 56.1292 8.55246 55.8878 8.3111C55.6599 8.06973 55.5459 7.76132 55.5459 7.38586V6.98358C55.5459 6.60812 55.6599 6.29971 55.8878 6.05834C56.1292 5.81697 56.5181 5.69629 57.0544 5.69629C57.5774 5.69629 57.9596 5.81697 58.2009 6.05834C58.4423 6.29971 58.563 6.60812 58.563 6.98358V7.38586C58.563 7.76132 58.4423 8.06973 58.2009 8.3111C57.9596 8.55246 57.5774 8.67315 57.0544 8.67315ZM55.7671 10.2018H58.3417V20.7013H55.7671V10.2018Z" fill="black"/>
<path d="M60.916 20.7008V10.2013H63.4906V11.9512H63.5912C63.8057 11.388 64.1409 10.9187 64.5969 10.5433C65.0662 10.1544 65.7098 9.95996 66.5278 9.95996C67.6139 9.95996 68.4453 10.3153 69.0219 11.026C69.5985 11.7367 69.8868 12.7491 69.8868 14.0632V20.7008H67.3122V14.3247C67.3122 13.5738 67.1781 13.0106 66.91 12.6351C66.6418 12.2597 66.1993 12.0719 65.5824 12.0719C65.3143 12.0719 65.0528 12.1121 64.798 12.1926C64.5566 12.2597 64.3354 12.3669 64.1342 12.5144C63.9465 12.6485 63.7923 12.8228 63.6716 13.0374C63.5509 13.2385 63.4906 13.4799 63.4906 13.7615V20.7008H60.916Z" fill="black"/>
<path d="M75.7802 20.9422C74.7745 20.9422 73.9297 20.7745 73.2458 20.4393C72.5619 20.0907 71.9585 19.6146 71.4355 19.0112L73.0044 17.4826C73.3933 17.9251 73.8157 18.2737 74.2716 18.5285C74.7409 18.7833 75.2773 18.9106 75.8807 18.9106C76.4975 18.9106 76.9401 18.8034 77.2082 18.5888C77.4898 18.3743 77.6306 18.0793 77.6306 17.7038C77.6306 17.3954 77.5301 17.154 77.3289 16.9797C77.1412 16.792 76.8127 16.6646 76.3433 16.5975L75.2974 16.4568C74.1576 16.3093 73.286 15.9874 72.6826 15.4913C72.0926 14.9817 71.7976 14.2442 71.7976 13.2788C71.7976 12.7692 71.8915 12.3133 72.0792 11.911C72.2669 11.4953 72.5351 11.1467 72.8838 10.8651C73.2324 10.5701 73.6481 10.3488 74.1308 10.2013C74.627 10.0404 75.1767 9.95996 75.7802 9.95996C76.2897 9.95996 76.7389 10.0002 77.1278 10.0806C77.5301 10.1477 77.8921 10.255 78.2139 10.4025C78.5358 10.5366 78.8308 10.7109 79.0989 10.9254C79.3671 11.1266 79.6286 11.3545 79.8834 11.6093L78.3748 13.1178C78.0664 12.796 77.6977 12.5278 77.2686 12.3133C76.8395 12.0987 76.3702 11.9915 75.8606 11.9915C75.2974 11.9915 74.8884 12.092 74.6337 12.2932C74.3923 12.4943 74.2716 12.7558 74.2716 13.0776C74.2716 13.4263 74.3722 13.6944 74.5733 13.8822C74.7879 14.0565 75.1432 14.1839 75.6394 14.2643L76.7054 14.4051C78.9716 14.727 80.1046 15.7595 80.1046 17.5027C80.1046 18.0122 79.9974 18.4816 79.7828 18.9106C79.5817 19.3263 79.2934 19.6884 78.9179 19.9968C78.5425 20.2918 78.0865 20.5265 77.5502 20.7008C77.0272 20.8617 76.4372 20.9422 75.7802 20.9422Z" fill="black"/>
<path d="M88.2517 18.9515H88.1511C88.0573 19.2196 87.9299 19.4744 87.769 19.7158C87.6215 19.9437 87.427 20.1516 87.1857 20.3393C86.9577 20.527 86.6761 20.6745 86.3409 20.7818C86.019 20.8891 85.6436 20.9427 85.2145 20.9427C84.1283 20.9427 83.297 20.5874 82.7204 19.8767C82.1438 19.166 81.8555 18.1536 81.8555 16.8395V10.2019H84.4301V16.578C84.4301 17.3021 84.5708 17.8586 84.8524 18.2475C85.134 18.6229 85.5832 18.8107 86.2001 18.8107C86.4549 18.8107 86.7029 18.7771 86.9443 18.7101C87.1991 18.643 87.4203 18.5425 87.608 18.4084C87.7958 18.2609 87.95 18.0866 88.0707 17.8854C88.1914 17.6709 88.2517 17.4228 88.2517 17.1412V10.2019H90.8263V20.7014H88.2517V18.9515Z" fill="black"/>
<path d="M95.975 20.7017C95.09 20.7017 94.4396 20.4804 94.0239 20.0379C93.6082 19.5954 93.4004 18.9719 93.4004 18.1673V5.81738H95.975V18.6501H97.3628V20.7017H95.975Z" fill="black"/>
<path d="M102.09 20.7019C101.205 20.7019 100.528 20.474 100.059 20.018C99.6029 19.5487 99.3749 18.885 99.3749 18.0268V12.2541H97.8262V10.2025H98.6307C99.0196 10.2025 99.2811 10.1153 99.4152 9.94098C99.5627 9.75325 99.6364 9.47836 99.6364 9.11631V7.32617H101.95V10.2025H104.102V12.2541H101.95V18.6503H103.941V20.7019H102.09Z" fill="black"/>
<path d="M8.85119 -0.297852H27.1745V18.0255C27.1745 20.3729 26.242 22.6243 24.582 24.2842C22.9221 25.9441 20.6708 26.8766 18.3233 26.8766H0V8.55334C0 6.20585 0.932533 3.95452 2.59245 2.2946C4.25237 0.634681 6.50371 -0.297852 8.85119 -0.297852Z" fill="url(#paint0_linear_382_27724)"/>
<path d="M21.4702 10.3951L19.6535 11.2276L18.3781 11.8121L18.3212 11.8377L16.5676 12.6298C16.5676 12.623 16.5647 12.6162 16.5624 12.6093C16.4589 12.1778 16.2593 11.7753 15.9785 11.4317L15.8164 11.0775L17.5661 10.2757L18.8602 9.68263L20.6929 8.84277C20.7945 9.00123 20.8893 9.16329 20.9772 9.32895L21.456 10.3735L21.4702 10.3951Z" fill="black"/>
<path d="M21.7661 15.1957C21.6314 15.7687 21.436 16.3257 21.1832 16.8572L15.501 15.8871L15.5544 15.5738C15.9689 15.2371 16.2835 14.7935 16.4642 14.291L21.7661 15.1957Z" fill="black"/>
<path d="M11.5233 16.0986L9.22778 17.7243L7.58674 18.8866C7.19492 18.4586 6.84902 17.9907 6.55469 17.4906L8.1872 16.3341L9.33412 15.5215L10.5203 14.6816L11.5233 16.0986Z" fill="black"/>
<path d="M11.7428 8.95819L11.0332 10.5424L9.99372 10.0767L8.67736 9.48701L6.82422 8.65625C7.16198 8.15532 7.55364 7.69292 7.99217 7.27734L10.0142 8.18316L11.5603 8.87688L11.7428 8.95819Z" fill="black"/>
<path d="M19.7985 14.8594C19.521 15.9371 18.9628 16.9221 18.181 17.7141C17.3991 18.5061 16.4213 19.0768 15.3472 19.3681C14.2731 19.6594 13.141 19.661 12.0661 19.3726C10.9912 19.0842 10.0118 18.5162 9.22778 17.7264C8.8187 17.3132 8.46855 16.8455 8.1872 16.3367L6.55469 17.4932C7.39253 18.9211 8.63891 20.0651 10.1331 20.7779C11.6273 21.4907 13.3008 21.7395 14.9377 21.4922C16.5746 21.2449 18.0999 20.5129 19.3169 19.3906C20.5338 18.2682 21.3867 16.807 21.7654 15.1954L19.7985 14.8594Z" fill="black"/>
<path d="M10.0127 8.184C10.8093 7.60992 11.7289 7.22988 12.6983 7.07418C13.6677 6.91848 14.6601 6.99142 15.5964 7.28718C16.5326 7.58295 17.3868 8.09337 18.0908 8.77773C18.7949 9.4621 19.3293 10.3015 19.6515 11.229L21.4682 10.3965C21.4648 10.388 21.462 10.3794 21.4585 10.3715L20.9798 9.32693C20.8899 9.16165 20.7952 8.99959 20.6955 8.84075C19.9562 7.68021 18.9398 6.72184 17.7379 6.05199C16.536 5.38214 15.1863 5.02188 13.8104 5.00366C12.4345 4.98544 11.0758 5.30983 9.85653 5.94762C8.63728 6.5854 7.59588 7.51653 6.82617 8.65709L8.67931 9.48785C9.05661 8.98946 9.50601 8.55003 10.0127 8.184Z" fill="black"/>
<path d="M7.51726 12.086C7.58675 11.7288 7.68682 11.3782 7.81636 11.0381L5.99676 10.2227C5.28058 12.0269 5.21822 14.0248 5.82049 15.8702L7.54683 14.6477C7.36119 13.8049 7.35112 12.9329 7.51726 12.086Z" fill="black"/>
<path d="M19.5618 10.9854L18.3091 11.6148L18.2545 11.6427L16.5361 12.5053" fill="black"/>
<path d="M10.4366 14.7263L9.32719 15.5121C9.04637 14.9623 8.8727 14.3641 8.81543 13.7494L9.43409 13.3115L10.4366 14.7263Z" fill="black"/>
<path d="M11.2719 10.6832L10.5623 12.2674L9.0918 11.6066C9.29179 11.055 9.59 10.544 9.97203 10.0986L11.2719 10.6832Z" fill="black"/>
<path d="M18.4182 14.6235C18.1503 15.5716 17.603 16.417 16.8476 17.0495C16.0923 17.682 15.1639 18.0723 14.1835 18.1695C13.2032 18.2667 12.2162 18.0663 11.3514 17.5945C10.4865 17.1226 9.78387 16.4012 9.33499 15.5242C9.33235 15.5206 9.33024 15.5165 9.32873 15.5123C8.88908 14.6477 8.71563 13.6722 8.8303 12.7091C8.94498 11.7459 9.34263 10.8384 9.97298 10.1013L9.99402 10.0774C10.5656 9.41871 11.3024 8.92429 12.1286 8.64504C12.9547 8.36579 13.8404 8.3118 14.6944 8.48865C15.5483 8.66549 16.3397 9.06676 16.9871 9.65114C17.6344 10.2355 18.1143 10.9819 18.3772 11.8134L18.3204 11.8384L16.5667 12.6299C16.5667 12.6231 16.5639 12.6163 16.5616 12.6095C16.3981 11.9217 15.9926 11.3157 15.4191 10.9023C14.8457 10.4889 14.1426 10.2957 13.4384 10.3579C12.7343 10.4202 12.076 10.7338 11.5839 11.2414C11.0919 11.749 10.799 12.4167 10.7587 13.1225C10.7184 13.8282 10.9334 14.5249 11.3645 15.0853C11.7955 15.6456 12.4138 16.032 13.1064 16.174C13.7989 16.316 14.5194 16.2041 15.1362 15.8586C15.7529 15.5132 16.2248 14.9573 16.4655 14.2926L18.4182 14.6235Z" fill="black"/>
</g>
<defs>
<linearGradient id="paint0_linear_382_27724" x1="0.434428" y1="0.379948" x2="40.2107" y2="39.4199" gradientUnits="userSpaceOnUse">
<stop stop-color="#3B916F"/>
<stop offset="1" stop-color="#096AA5"/>
</linearGradient>
<clipPath id="clip0_382_27724">
<rect width="105.348" height="27.1745" fill="white"/>
</clipPath>
</defs>
</svg>
